<svg xmlns="http://www.w3.org/2000/svg" xmlns:xlink="http://www.w3.org/1999/xlink" width="500" zoomAndPan="magnify" viewBox="0 0 375 374.999991" height="500" preserveAspectRatio="xMidYMid meet" version="1.2"><defs><clipPath id="99a1040d99"><path d="M 37.5 199 L 335 199 L 335 337 L 37.5 337 Z M 37.5 199 "/></clipPath></defs><g id="0aa594076f"><path style=" stroke:none;fill-rule:nonzero;fill:#ffffff;fill-opacity:1;" d="M 333.742188 221.105469 C 332.964844 219.9375 332.09375 218.839844 331.136719 217.816406 C 330.175781 216.792969 329.140625 215.851562 328.023438 215 C 326.910156 214.148438 325.730469 213.390625 324.492188 212.734375 C 323.25 212.078125 321.964844 211.523438 320.636719 211.078125 C 319.304688 210.632812 317.945312 210.300781 316.558594 210.082031 C 315.171875 209.859375 313.777344 209.753906 312.375 209.765625 C 310.96875 209.773438 309.578125 209.902344 308.195312 210.140625 C 306.8125 210.382812 305.457031 210.734375 304.132812 211.199219 L 298.203125 213.277344 C 298.171875 213.257812 298.144531 213.234375 298.109375 213.214844 L 288.425781 207.125 C 286.78125 206.089844 285.042969 205.242188 283.214844 204.582031 C 281.386719 203.917969 279.507812 203.460938 277.578125 203.203125 C 275.652344 202.945312 273.71875 202.894531 271.78125 203.054688 C 269.84375 203.214844 267.945312 203.578125 266.085938 204.144531 L 247.863281 209.703125 C 247.6875 209.550781 247.5 209.410156 247.304688 209.285156 L 236.75 202.652344 C 235.445312 201.828125 234.066406 201.15625 232.617188 200.628906 C 231.167969 200.105469 229.679688 199.738281 228.148438 199.535156 C 226.621094 199.332031 225.085938 199.289062 223.550781 199.414062 C 222.011719 199.539062 220.507812 199.828125 219.03125 200.277344 L 150.414062 220.808594 L 140.589844 215.164062 C 139.230469 214.382812 137.832031 213.6875 136.390625 213.078125 C 134.945312 212.46875 133.472656 211.953125 131.964844 211.523438 C 130.457031 211.097656 128.929688 210.765625 127.382812 210.527344 C 125.835938 210.289062 124.277344 210.144531 122.714844 210.101562 C 121.148438 210.054688 119.585938 210.105469 118.027344 210.25 C 116.46875 210.398438 114.921875 210.640625 113.394531 210.976562 C 111.863281 211.3125 110.359375 211.742188 108.886719 212.265625 C 107.410156 212.789062 105.96875 213.398438 104.570312 214.101562 L 48.933594 241.835938 L 48.566406 240.175781 C 48.496094 239.867188 48.398438 239.570312 48.269531 239.285156 C 48.144531 238.996094 47.988281 238.726562 47.808594 238.46875 C 47.628906 238.210938 47.425781 237.976562 47.195312 237.757812 C 46.96875 237.542969 46.722656 237.347656 46.457031 237.179688 C 46.191406 237.011719 45.914062 236.871094 45.621094 236.757812 C 45.328125 236.644531 45.027344 236.5625 44.71875 236.507812 C 44.40625 236.453125 44.097656 236.429688 43.78125 236.4375 C 43.46875 236.445312 43.15625 236.484375 42.851562 236.550781 C 42.542969 236.621094 42.246094 236.71875 41.960938 236.84375 C 41.671875 236.972656 41.402344 237.125 41.144531 237.304688 C 40.886719 237.484375 40.648438 237.6875 40.433594 237.917969 C 40.214844 238.144531 40.023438 238.390625 39.855469 238.65625 C 39.6875 238.921875 39.542969 239.199219 39.429688 239.492188 C 39.316406 239.785156 39.234375 240.085938 39.179688 240.394531 C 39.125 240.703125 39.101562 241.015625 39.109375 241.332031 C 39.117188 241.644531 39.152344 241.957031 39.222656 242.261719 L 40.925781 249.890625 L 57.007812 321.914062 L 57.015625 321.949219 L 59.527344 333.207031 C 59.597656 333.511719 59.695312 333.808594 59.820312 334.097656 C 59.949219 334.386719 60.101562 334.65625 60.28125 334.914062 C 60.464844 335.171875 60.667969 335.410156 60.894531 335.625 C 61.121094 335.84375 61.367188 336.035156 61.632812 336.203125 C 61.898438 336.371094 62.179688 336.511719 62.472656 336.628906 C 62.765625 336.742188 63.066406 336.824219 63.375 336.878906 C 63.683594 336.933594 63.996094 336.957031 64.3125 336.949219 C 64.625 336.941406 64.933594 336.902344 65.242188 336.835938 C 65.550781 336.765625 65.847656 336.667969 66.132812 336.542969 C 66.421875 336.414062 66.695312 336.261719 66.949219 336.082031 C 67.207031 335.898438 67.445312 335.695312 67.660156 335.46875 C 67.878906 335.242188 68.070312 334.996094 68.238281 334.730469 C 68.410156 334.464844 68.550781 334.183594 68.664062 333.890625 C 68.777344 333.597656 68.859375 333.296875 68.914062 332.988281 C 68.96875 332.675781 68.992188 332.367188 68.984375 332.050781 C 68.976562 331.738281 68.9375 331.425781 68.871094 331.121094 L 67.046875 322.945312 L 95.761719 302.492188 L 169.832031 330.921875 C 171.992188 331.746094 174.214844 332.308594 176.507812 332.601562 C 178.800781 332.894531 181.09375 332.914062 183.390625 332.660156 C 185.6875 332.40625 187.921875 331.882812 190.09375 331.09375 C 192.265625 330.304688 194.3125 329.273438 196.238281 327.992188 L 330.191406 238.832031 C 330.890625 238.367188 331.535156 237.839844 332.128906 237.246094 C 332.726562 236.652344 333.257812 236.007812 333.722656 235.3125 C 334.191406 234.613281 334.585938 233.878906 334.910156 233.101562 C 335.230469 232.328125 335.476562 231.527344 335.640625 230.707031 C 335.804688 229.882812 335.886719 229.050781 335.890625 228.210938 C 335.890625 227.371094 335.808594 226.539062 335.644531 225.714844 C 335.484375 224.894531 335.242188 224.09375 334.921875 223.316406 C 334.601562 222.542969 334.207031 221.804688 333.742188 221.105469 Z M 268.875 213.300781 C 270.078125 212.933594 271.308594 212.699219 272.5625 212.597656 C 273.816406 212.496094 275.066406 212.527344 276.3125 212.691406 C 277.558594 212.859375 278.777344 213.15625 279.957031 213.582031 C 281.140625 214.011719 282.265625 214.5625 283.332031 215.230469 L 286.660156 217.324219 L 198.277344 248.304688 L 182.957031 239.503906 Z M 221.800781 209.441406 C 223.460938 208.933594 225.148438 208.796875 226.871094 209.023438 C 228.589844 209.253906 230.183594 209.832031 231.65625 210.753906 L 235.820312 213.375 L 171.574219 232.964844 L 161.851562 227.378906 Z M 326.253906 228.824219 C 326.082031 229.695312 325.625 230.375 324.886719 230.863281 L 190.933594 320.023438 C 189.644531 320.878906 188.273438 321.570312 186.820312 322.097656 C 185.367188 322.628906 183.871094 322.976562 182.335938 323.148438 C 180.800781 323.316406 179.265625 323.304688 177.730469 323.105469 C 176.195312 322.910156 174.707031 322.535156 173.265625 321.980469 L 96.792969 292.632812 C 96.042969 292.347656 95.269531 292.253906 94.472656 292.355469 C 93.675781 292.457031 92.953125 292.738281 92.300781 293.203125 L 64.78125 312.804688 L 51.085938 251.460938 L 108.839844 222.667969 C 110.945312 221.617188 113.148438 220.835938 115.449219 220.328125 C 117.75 219.820312 120.078125 219.601562 122.429688 219.671875 C 124.785156 219.742188 127.09375 220.097656 129.359375 220.738281 C 131.625 221.382812 133.777344 222.289062 135.820312 223.464844 L 195.40625 257.695312 C 196.105469 258.09375 196.757812 258.558594 197.363281 259.082031 C 197.96875 259.609375 198.519531 260.1875 199.015625 260.820312 C 199.507812 261.453125 199.9375 262.125 200.300781 262.84375 C 200.667969 263.558594 200.957031 264.300781 201.175781 265.074219 C 201.398438 265.847656 201.539062 266.632812 201.605469 267.433594 C 201.671875 268.234375 201.664062 269.03125 201.574219 269.828125 C 201.484375 270.628906 201.320312 271.410156 201.082031 272.175781 C 200.84375 272.941406 200.53125 273.679688 200.148438 274.382812 L 199.953125 274.75 C 199.601562 275.414062 199.195312 276.035156 198.730469 276.621094 C 198.265625 277.207031 197.75 277.742188 197.183594 278.234375 C 196.617188 278.722656 196.011719 279.152344 195.363281 279.53125 C 194.714844 279.90625 194.039062 280.21875 193.335938 280.464844 C 192.628906 280.714844 191.90625 280.898438 191.167969 281.011719 C 190.429688 281.125 189.683594 281.167969 188.9375 281.144531 C 188.191406 281.117188 187.449219 281.023438 186.722656 280.863281 C 185.992188 280.699219 185.28125 280.46875 184.59375 280.171875 L 138.984375 260.78125 C 138.695312 260.660156 138.398438 260.566406 138.089844 260.5 C 137.78125 260.433594 137.46875 260.402344 137.15625 260.398438 C 136.839844 260.394531 136.527344 260.421875 136.21875 260.480469 C 135.910156 260.539062 135.609375 260.625 135.316406 260.742188 C 135.023438 260.859375 134.746094 261.003906 134.484375 261.175781 C 134.21875 261.347656 133.976562 261.546875 133.75 261.765625 C 133.527344 261.988281 133.324219 262.226562 133.148438 262.488281 C 132.96875 262.746094 132.820312 263.019531 132.695312 263.3125 C 132.574219 263.601562 132.480469 263.898438 132.417969 264.207031 C 132.351562 264.515625 132.320312 264.828125 132.316406 265.140625 C 132.3125 265.457031 132.339844 265.769531 132.398438 266.078125 C 132.457031 266.386719 132.546875 266.6875 132.664062 266.980469 C 132.78125 267.269531 132.929688 267.546875 133.101562 267.8125 C 133.273438 268.074219 133.472656 268.320312 133.691406 268.542969 C 133.914062 268.765625 134.152344 268.96875 134.414062 269.144531 C 134.675781 269.320312 134.949219 269.46875 135.238281 269.59375 L 180.851562 288.984375 C 181.464844 289.246094 182.089844 289.484375 182.726562 289.691406 C 183.363281 289.898438 184.007812 290.074219 184.664062 290.21875 C 185.316406 290.367188 185.972656 290.480469 186.636719 290.566406 C 187.300781 290.652344 187.96875 290.707031 188.636719 290.726562 C 189.308594 290.75 189.976562 290.742188 190.644531 290.703125 C 191.3125 290.664062 191.976562 290.59375 192.640625 290.488281 C 193.300781 290.386719 193.957031 290.253906 194.605469 290.09375 C 195.253906 289.929688 195.894531 289.738281 196.527344 289.515625 C 197.15625 289.289062 197.777344 289.039062 198.386719 288.757812 C 198.992188 288.476562 199.585938 288.167969 200.164062 287.832031 C 200.746094 287.496094 201.304688 287.136719 201.851562 286.746094 C 202.398438 286.359375 202.921875 285.945312 203.429688 285.507812 C 203.9375 285.070312 204.421875 284.609375 204.882812 284.125 C 205.347656 283.644531 205.789062 283.140625 206.203125 282.617188 C 206.621094 282.089844 207.011719 281.550781 207.378906 280.988281 C 207.746094 280.429688 208.082031 279.851562 208.394531 279.257812 L 208.59375 278.894531 C 209.085938 277.980469 209.511719 277.039062 209.871094 276.066406 C 210.230469 275.09375 210.515625 274.101562 210.734375 273.085938 C 210.953125 272.074219 211.101562 271.050781 211.175781 270.015625 C 211.246094 268.980469 211.25 267.945312 211.175781 266.914062 C 211.101562 265.878906 210.957031 264.855469 210.738281 263.839844 C 210.523438 262.828125 210.234375 261.832031 209.875 260.859375 C 209.519531 259.886719 209.09375 258.945312 208.601562 258.03125 C 208.109375 257.121094 207.554688 256.246094 206.941406 255.410156 L 307.300781 220.234375 C 308.125 219.945312 308.972656 219.722656 309.835938 219.574219 C 310.699219 219.425781 311.566406 219.34375 312.441406 219.339844 C 313.320312 219.332031 314.1875 219.398438 315.054688 219.535156 C 315.917969 219.671875 316.765625 219.882812 317.597656 220.160156 C 318.429688 220.4375 319.230469 220.78125 320.003906 221.191406 C 320.777344 221.601562 321.511719 222.074219 322.207031 222.605469 C 322.902344 223.136719 323.550781 223.722656 324.148438 224.363281 C 324.75 225.003906 325.292969 225.6875 325.777344 226.414062 C 326.269531 227.152344 326.429688 227.953125 326.253906 228.824219 Z M 326.253906 228.824219 "/><path style=" stroke:none;fill-rule:nonzero;fill:#ffffff;fill-opacity:1;" d="M 102.449219 105.675781 L 105.011719 114.675781 C 105.039062 114.78125 105.074219 114.886719 105.113281 114.988281 C 114.738281 141.671875 140.140625 166.351562 185.054688 192.664062 C 185.800781 193.097656 186.605469 193.316406 187.46875 193.320312 C 188.332031 193.320312 189.136719 193.105469 189.882812 192.667969 C 213.261719 179.054688 231.113281 165.964844 244.460938 152.648438 C 259.960938 137.183594 269.15625 121.710938 272.582031 105.34375 C 272.597656 105.273438 272.609375 105.203125 272.621094 105.132812 C 273.28125 101.144531 273.585938 97.128906 273.542969 93.085938 C 273.539062 92.992188 273.535156 92.902344 273.53125 92.808594 C 272.609375 79.808594 270.148438 70.476562 266.007812 64.289062 C 257.898438 49.933594 244.015625 40.519531 228.824219 39.097656 C 214.066406 37.714844 199.546875 43.777344 187.472656 56.25 C 179.730469 48.257812 170.882812 42.8125 161.636719 40.386719 C 159.179688 39.730469 156.683594 39.292969 154.148438 39.066406 C 151.617188 38.84375 149.082031 38.84375 146.546875 39.058594 C 144.011719 39.273438 141.515625 39.707031 139.058594 40.355469 C 136.597656 41.003906 134.214844 41.859375 131.902344 42.921875 C 121.691406 47.570312 113.109375 56.035156 107.738281 66.761719 C 102.027344 78.160156 100.15625 91.421875 102.324219 105.113281 C 102.355469 105.300781 102.394531 105.488281 102.449219 105.675781 Z M 116.296875 71.050781 C 120.691406 62.273438 127.644531 55.378906 135.867188 51.636719 C 151.972656 44.308594 169.890625 49.855469 183.804688 66.476562 C 184.03125 66.742188 184.28125 66.984375 184.558594 67.199219 C 184.835938 67.410156 185.132812 67.589844 185.449219 67.738281 C 185.765625 67.886719 186.097656 68 186.4375 68.074219 C 186.78125 68.152344 187.125 68.1875 187.476562 68.1875 C 187.824219 68.1875 188.171875 68.152344 188.511719 68.074219 C 188.855469 68 189.183594 67.886719 189.5 67.738281 C 189.816406 67.589844 190.113281 67.410156 190.390625 67.199219 C 190.667969 66.984375 190.921875 66.742188 191.144531 66.476562 C 201.804688 53.742188 214.867188 47.410156 227.933594 48.628906 C 240.050781 49.765625 251.199219 57.433594 257.753906 69.144531 C 257.820312 69.265625 257.894531 69.386719 257.972656 69.5 C 261.195312 74.230469 263.160156 82.027344 263.96875 93.34375 C 264 96.746094 263.738281 100.128906 263.191406 103.488281 C 260.140625 117.933594 251.800781 131.796875 237.699219 145.871094 C 225.398438 158.144531 208.953125 170.296875 187.484375 182.980469 C 146.75 158.769531 122.757812 135.5 114.171875 111.894531 L 111.738281 103.335938 C 109.949219 91.730469 111.527344 80.574219 116.296875 71.050781 Z M 116.296875 71.050781 "/><path style=" stroke:none;fill-rule:nonzero;fill:#ffffff;fill-opacity:1;" d="M 333.742188 221.105469 C 332.964844 219.9375 332.09375 218.839844 331.136719 217.816406 C 330.175781 216.792969 329.140625 215.851562 328.023438 215 C 326.910156 214.148438 325.730469 213.390625 324.492188 212.734375 C 323.25 212.078125 321.964844 211.523438 320.636719 211.078125 C 319.304688 210.632812 317.945312 210.300781 316.558594 210.082031 C 315.171875 209.859375 313.777344 209.753906 312.375 209.765625 C 310.96875 209.773438 309.578125 209.902344 308.195312 210.140625 C 306.8125 210.382812 305.457031 210.734375 304.132812 211.199219 L 298.203125 213.277344 C 298.171875 213.257812 298.144531 213.234375 298.109375 213.214844 L 288.425781 207.125 C 286.78125 206.089844 285.042969 205.242188 283.214844 204.582031 C 281.386719 203.917969 279.507812 203.460938 277.578125 203.203125 C 275.652344 202.945312 273.71875 202.894531 271.78125 203.054688 C 269.84375 203.214844 267.945312 203.578125 266.085938 204.144531 L 247.863281 209.703125 C 247.6875 209.550781 247.5 209.410156 247.304688 209.285156 L 236.75 202.652344 C 235.445312 201.828125 234.066406 201.15625 232.617188 200.628906 C 231.167969 200.105469 229.679688 199.738281 228.148438 199.535156 C 226.621094 199.332031 225.085938 199.289062 223.550781 199.414062 C 222.011719 199.539062 220.507812 199.828125 219.03125 200.277344 L 150.414062 220.808594 L 140.589844 215.164062 C 139.230469 214.382812 137.832031 213.6875 136.390625 213.078125 C 134.945312 212.46875 133.472656 211.953125 131.964844 211.523438 C 130.457031 211.097656 128.929688 210.765625 127.382812 210.527344 C 125.835938 210.289062 124.277344 210.144531 122.714844 210.101562 C 121.148438 210.054688 119.585938 210.105469 118.027344 210.25 C 116.46875 210.398438 114.921875 210.640625 113.394531 210.976562 C 111.863281 211.3125 110.359375 211.742188 108.886719 212.265625 C 107.410156 212.789062 105.96875 213.398438 104.570312 214.101562 L 48.933594 241.835938 L 48.566406 240.175781 C 48.496094 239.867188 48.398438 239.570312 48.269531 239.285156 C 48.144531 238.996094 47.988281 238.726562 47.808594 238.46875 C 47.628906 238.210938 47.425781 237.976562 47.195312 237.757812 C 46.96875 237.542969 46.722656 237.347656 46.457031 237.179688 C 46.191406 237.011719 45.914062 236.871094 45.621094 236.757812 C 45.328125 236.644531 45.027344 236.5625 44.71875 236.507812 C 44.40625 236.453125 44.097656 236.429688 43.78125 236.4375 C 43.46875 236.445312 43.15625 236.484375 42.851562 236.550781 C 42.542969 236.621094 42.246094 236.71875 41.960938 236.84375 C 41.671875 236.972656 41.402344 237.125 41.144531 237.304688 C 40.886719 237.484375 40.648438 237.6875 40.433594 237.917969 C 40.214844 238.144531 40.023438 238.390625 39.855469 238.65625 C 39.6875 238.921875 39.542969 239.199219 39.429688 239.492188 C 39.316406 239.785156 39.234375 240.085938 39.179688 240.394531 C 39.125 240.703125 39.101562 241.015625 39.109375 241.332031 C 39.117188 241.644531 39.152344 241.957031 39.222656 242.261719 L 40.925781 249.890625 L 57.007812 321.914062 L 57.015625 321.949219 L 59.527344 333.207031 C 59.597656 333.511719 59.695312 333.808594 59.820312 334.097656 C 59.949219 334.386719 60.101562 334.65625 60.28125 334.914062 C 60.464844 335.171875 60.667969 335.410156 60.894531 335.625 C 61.121094 335.84375 61.367188 336.035156 61.632812 336.203125 C 61.898438 336.371094 62.179688 336.511719 62.472656 336.628906 C 62.765625 336.742188 63.066406 336.824219 63.375 336.878906 C 63.683594 336.933594 63.996094 336.957031 64.3125 336.949219 C 64.625 336.941406 64.933594 336.902344 65.242188 336.835938 C 65.550781 336.765625 65.847656 336.667969 66.132812 336.542969 C 66.421875 336.414062 66.695312 336.261719 66.949219 336.082031 C 67.207031 335.898438 67.445312 335.695312 67.660156 335.46875 C 67.878906 335.242188 68.070312 334.996094 68.238281 334.730469 C 68.410156 334.464844 68.550781 334.183594 68.664062 333.890625 C 68.777344 333.597656 68.859375 333.296875 68.914062 332.988281 C 68.96875 332.675781 68.992188 332.367188 68.984375 332.050781 C 68.976562 331.738281 68.9375 331.425781 68.871094 331.121094 L 67.046875 322.945312 L 95.761719 302.492188 L 169.832031 330.921875 C 171.992188 331.746094 174.214844 332.308594 176.507812 332.601562 C 178.800781 332.894531 181.09375 332.914062 183.390625 332.660156 C 185.6875 332.40625 187.921875 331.882812 190.09375 331.09375 C 192.265625 330.304688 194.3125 329.273438 196.238281 327.992188 L 330.191406 238.832031 C 330.890625 238.367188 331.535156 237.839844 332.128906 237.246094 C 332.726562 236.652344 333.257812 236.007812 333.722656 235.3125 C 334.191406 234.613281 334.585938 233.878906 334.910156 233.101562 C 335.230469 232.328125 335.476562 231.527344 335.640625 230.707031 C 335.804688 229.882812 335.886719 229.050781 335.890625 228.210938 C 335.890625 227.371094 335.808594 226.539062 335.644531 225.714844 C 335.484375 224.894531 335.242188 224.09375 334.921875 223.316406 C 334.601562 222.542969 334.207031 221.804688 333.742188 221.105469 Z M 268.875 213.300781 C 270.078125 212.933594 271.308594 212.699219 272.5625 212.597656 C 273.816406 212.496094 275.066406 212.527344 276.3125 212.691406 C 277.558594 212.859375 278.777344 213.15625 279.957031 213.582031 C 281.140625 214.011719 282.265625 214.5625 283.332031 215.230469 L 286.660156 217.324219 L 198.277344 248.304688 L 182.957031 239.503906 Z M 221.800781 209.441406 C 223.460938 208.933594 225.148438 208.796875 226.871094 209.023438 C 228.589844 209.253906 230.183594 209.832031 231.65625 210.753906 L 235.820312 213.375 L 171.574219 232.964844 L 161.851562 227.378906 Z M 326.253906 228.824219 C 326.082031 229.695312 325.625 230.375 324.886719 230.863281 L 190.933594 320.023438 C 189.644531 320.878906 188.273438 321.570312 186.820312 322.097656 C 185.367188 322.628906 183.871094 322.976562 182.335938 323.148438 C 180.800781 323.316406 179.265625 323.304688 177.730469 323.105469 C 176.195312 322.910156 174.707031 322.535156 173.265625 321.980469 L 96.792969 292.632812 C 96.042969 292.347656 95.269531 292.253906 94.472656 292.355469 C 93.675781 292.457031 92.953125 292.738281 92.300781 293.203125 L 64.78125 312.804688 L 51.085938 251.460938 L 108.839844 222.667969 C 110.945312 221.617188 113.148438 220.835938 115.449219 220.328125 C 117.75 219.820312 120.078125 219.601562 122.429688 219.671875 C 124.785156 219.742188 127.09375 220.097656 129.359375 220.738281 C 131.625 221.382812 133.777344 222.289062 135.820312 223.464844 L 195.40625 257.695312 C 196.105469 258.09375 196.757812 258.558594 197.363281 259.082031 C 197.96875 259.609375 198.519531 260.1875 199.015625 260.820312 C 199.507812 261.453125 199.9375 262.125 200.300781 262.84375 C 200.667969 263.558594 200.957031 264.300781 201.175781 265.074219 C 201.398438 265.847656 201.539062 266.632812 201.605469 267.433594 C 201.671875 268.234375 201.664062 269.03125 201.574219 269.828125 C 201.484375 270.628906 201.320312 271.410156 201.082031 272.175781 C 200.84375 272.941406 200.53125 273.679688 200.148438 274.382812 L 199.953125 274.75 C 199.601562 275.414062 199.195312 276.035156 198.730469 276.621094 C 198.265625 277.207031 197.75 277.742188 197.183594 278.234375 C 196.617188 278.722656 196.011719 279.152344 195.363281 279.53125 C 194.714844 279.90625 194.039062 280.21875 193.335938 280.464844 C 192.628906 280.714844 191.90625 280.898438 191.167969 281.011719 C 190.429688 281.125 189.683594 281.167969 188.9375 281.144531 C 188.191406 281.117188 187.449219 281.023438 186.722656 280.863281 C 185.992188 280.699219 185.28125 280.46875 184.59375 280.171875 L 138.984375 260.78125 C 138.695312 260.660156 138.398438 260.566406 138.089844 260.5 C 137.78125 260.433594 137.46875 260.402344 137.15625 260.398438 C 136.839844 260.394531 136.527344 260.421875 136.21875 260.480469 C 135.910156 260.539062 135.609375 260.625 135.316406 260.742188 C 135.023438 260.859375 134.746094 261.003906 134.484375 261.175781 C 134.21875 261.347656 133.976562 261.546875 133.75 261.765625 C 133.527344 261.988281 133.324219 262.226562 133.148438 262.488281 C 132.96875 262.746094 132.820312 263.019531 132.695312 263.3125 C 132.574219 263.601562 132.480469 263.898438 132.417969 264.207031 C 132.351562 264.515625 132.320312 264.828125 132.316406 265.140625 C 132.3125 265.457031 132.339844 265.769531 132.398438 266.078125 C 132.457031 266.386719 132.546875 266.6875 132.664062 266.980469 C 132.78125 267.269531 132.929688 267.546875 133.101562 267.8125 C 133.273438 268.074219 133.472656 268.320312 133.691406 268.542969 C 133.914062 268.765625 134.152344 268.96875 134.414062 269.144531 C 134.675781 269.320312 134.949219 269.46875 135.238281 269.59375 L 180.851562 288.984375 C 181.464844 289.246094 182.089844 289.484375 182.726562 289.691406 C 183.363281 289.898438 184.007812 290.074219 184.664062 290.21875 C 185.316406 290.367188 185.972656 290.480469 186.636719 290.566406 C 187.300781 290.652344 187.96875 290.707031 188.636719 290.726562 C 189.308594 290.75 189.976562 290.742188 190.644531 290.703125 C 191.3125 290.664062 191.976562 290.59375 192.640625 290.488281 C 193.300781 290.386719 193.957031 290.253906 194.605469 290.09375 C 195.253906 289.929688 195.894531 289.738281 196.527344 289.515625 C 197.15625 289.289062 197.777344 289.039062 198.386719 288.757812 C 198.992188 288.476562 199.585938 288.167969 200.164062 287.832031 C 200.746094 287.496094 201.304688 287.136719 201.851562 286.746094 C 202.398438 286.359375 202.921875 285.945312 203.429688 285.507812 C 203.9375 285.070312 204.421875 284.609375 204.882812 284.125 C 205.347656 283.644531 205.789062 283.140625 206.203125 282.617188 C 206.621094 282.089844 207.011719 281.550781 207.378906 280.988281 C 207.746094 280.429688 208.082031 279.851562 208.394531 279.257812 L 208.59375 278.894531 C 209.085938 277.980469 209.511719 277.039062 209.871094 276.066406 C 210.230469 275.09375 210.515625 274.101562 210.734375 273.085938 C 210.953125 272.074219 211.101562 271.050781 211.175781 270.015625 C 211.246094 268.980469 211.25 267.945312 211.175781 266.914062 C 211.101562 265.878906 210.957031 264.855469 210.738281 263.839844 C 210.523438 262.828125 210.234375 261.832031 209.875 260.859375 C 209.519531 259.886719 209.09375 258.945312 208.601562 258.03125 C 208.109375 257.121094 207.554688 256.246094 206.941406 255.410156 L 307.300781 220.234375 C 308.125 219.945312 308.972656 219.722656 309.835938 219.574219 C 310.699219 219.425781 311.566406 219.34375 312.441406 219.339844 C 313.320312 219.332031 314.1875 219.398438 315.054688 219.535156 C 315.917969 219.671875 316.765625 219.882812 317.597656 220.160156 C 318.429688 220.4375 319.230469 220.78125 320.003906 221.191406 C 320.777344 221.601562 321.511719 222.074219 322.207031 222.605469 C 322.902344 223.136719 323.550781 223.722656 324.148438 224.363281 C 324.75 225.003906 325.292969 225.6875 325.777344 226.414062 C 326.269531 227.152344 326.429688 227.953125 326.253906 228.824219 Z M 326.253906 228.824219 "/><path style=" stroke:none;fill-rule:nonzero;fill:#ffffff;fill-opacity:1;" d="M 102.449219 105.675781 L 105.011719 114.675781 C 105.039062 114.78125 105.074219 114.886719 105.113281 114.988281 C 114.738281 141.671875 140.140625 166.351562 185.054688 192.664062 C 185.800781 193.097656 186.605469 193.316406 187.46875 193.320312 C 188.332031 193.320312 189.136719 193.105469 189.882812 192.667969 C 213.261719 179.054688 231.113281 165.964844 244.460938 152.648438 C 259.960938 137.183594 269.15625 121.710938 272.582031 105.34375 C 272.597656 105.273438 272.609375 105.203125 272.621094 105.132812 C 273.28125 101.144531 273.585938 97.128906 273.542969 93.085938 C 273.539062 92.992188 273.535156 92.902344 273.53125 92.808594 C 272.609375 79.808594 270.148438 70.476562 266.007812 64.289062 C 257.898438 49.933594 244.015625 40.519531 228.824219 39.097656 C 214.066406 37.714844 199.546875 43.777344 187.472656 56.25 C 179.730469 48.257812 170.882812 42.8125 161.636719 40.386719 C 159.179688 39.730469 156.683594 39.292969 154.148438 39.066406 C 151.617188 38.84375 149.082031 38.84375 146.546875 39.058594 C 144.011719 39.273438 141.515625 39.707031 139.058594 40.355469 C 136.597656 41.003906 134.214844 41.859375 131.902344 42.921875 C 121.691406 47.570312 113.109375 56.035156 107.738281 66.761719 C 102.027344 78.160156 100.15625 91.421875 102.324219 105.113281 C 102.355469 105.300781 102.394531 105.488281 102.449219 105.675781 Z M 116.296875 71.050781 C 120.691406 62.273438 127.644531 55.378906 135.867188 51.636719 C 151.972656 44.308594 169.890625 49.855469 183.804688 66.476562 C 184.03125 66.742188 184.28125 66.984375 184.558594 67.199219 C 184.835938 67.410156 185.132812 67.589844 185.449219 67.738281 C 185.765625 67.886719 186.097656 68 186.4375 68.074219 C 186.78125 68.152344 187.125 68.1875 187.476562 68.1875 C 187.824219 68.1875 188.171875 68.152344 188.511719 68.074219 C 188.855469 68 189.183594 67.886719 189.5 67.738281 C 189.816406 67.589844 190.113281 67.410156 190.390625 67.199219 C 190.667969 66.984375 190.921875 66.742188 191.144531 66.476562 C 201.804688 53.742188 214.867188 47.410156 227.933594 48.628906 C 240.050781 49.765625 251.199219 57.433594 257.753906 69.144531 C 257.820312 69.265625 257.894531 69.386719 257.972656 69.5 C 261.195312 74.230469 263.160156 82.027344 263.96875 93.34375 C 264 96.746094 263.738281 100.128906 263.191406 103.488281 C 260.140625 117.933594 251.800781 131.796875 237.699219 145.871094 C 225.398438 158.144531 208.953125 170.296875 187.484375 182.980469 C 146.75 158.769531 122.757812 135.5 114.171875 111.894531 L 111.738281 103.335938 C 109.949219 91.730469 111.527344 80.574219 116.296875 71.050781 Z M 116.296875 71.050781 "/><g clip-rule="nonzero" clip-path="url(#99a1040d99)"><path style=" stroke:none;fill-rule:nonzero;fill:#000000;fill-opacity:1;" d="M 332.683594 221.105469 C 331.902344 219.9375 331.035156 218.839844 330.074219 217.816406 C 329.113281 216.792969 328.078125 215.851562 326.960938 215 C 325.847656 214.148438 324.667969 213.390625 323.429688 212.734375 C 322.1875 212.078125 320.902344 211.523438 319.570312 211.078125 C 318.238281 210.632812 316.878906 210.300781 315.492188 210.082031 C 314.105469 209.859375 312.710938 209.753906 311.304688 209.765625 C 309.902344 209.773438 308.507812 209.902344 307.125 210.140625 C 305.738281 210.382812 304.386719 210.734375 303.0625 211.199219 L 297.128906 213.277344 C 297.097656 213.257812 297.066406 213.234375 297.035156 213.214844 L 287.347656 207.125 C 285.699219 206.089844 283.960938 205.242188 282.132812 204.582031 C 280.304688 203.917969 278.425781 203.460938 276.496094 203.203125 C 274.566406 202.945312 272.632812 202.894531 270.695312 203.054688 C 268.757812 203.214844 266.855469 203.578125 264.996094 204.144531 L 246.765625 209.703125 C 246.589844 209.550781 246.402344 209.410156 246.207031 209.285156 L 235.648438 202.652344 C 234.34375 201.828125 232.964844 201.15625 231.511719 200.628906 C 230.0625 200.105469 228.574219 199.738281 227.042969 199.535156 C 225.515625 199.332031 223.980469 199.289062 222.441406 199.414062 C 220.90625 199.539062 219.398438 199.828125 217.921875 200.277344 L 149.273438 220.808594 L 139.445312 215.164062 C 138.089844 214.382812 136.6875 213.6875 135.246094 213.078125 C 133.800781 212.46875 132.324219 211.953125 130.816406 211.523438 C 129.308594 211.097656 127.78125 210.765625 126.234375 210.527344 C 124.683594 210.289062 123.128906 210.144531 121.5625 210.101562 C 119.996094 210.054688 118.433594 210.105469 116.875 210.25 C 115.3125 210.398438 113.769531 210.640625 112.238281 210.976562 C 110.707031 211.3125 109.203125 211.742188 107.726562 212.265625 C 106.25 212.789062 104.8125 213.398438 103.410156 214.101562 L 47.753906 241.835938 L 47.382812 240.175781 C 47.3125 239.867188 47.214844 239.570312 47.085938 239.285156 C 46.960938 238.996094 46.804688 238.726562 46.625 238.46875 C 46.445312 238.210938 46.242188 237.976562 46.011719 237.757812 C 45.785156 237.542969 45.539062 237.347656 45.273438 237.179688 C 45.007812 237.011719 44.730469 236.871094 44.4375 236.757812 C 44.144531 236.644531 43.84375 236.5625 43.53125 236.507812 C 43.222656 236.453125 42.910156 236.429688 42.597656 236.4375 C 42.28125 236.445312 41.972656 236.484375 41.664062 236.550781 C 41.359375 236.621094 41.0625 236.71875 40.773438 236.84375 C 40.488281 236.972656 40.214844 237.125 39.957031 237.304688 C 39.699219 237.484375 39.460938 237.6875 39.246094 237.917969 C 39.027344 238.144531 38.835938 238.390625 38.667969 238.65625 C 38.5 238.921875 38.359375 239.199219 38.242188 239.492188 C 38.128906 239.785156 38.046875 240.085938 37.992188 240.394531 C 37.9375 240.703125 37.914062 241.015625 37.921875 241.332031 C 37.929688 241.644531 37.964844 241.957031 38.035156 242.261719 L 39.738281 249.890625 L 55.828125 321.914062 L 55.835938 321.949219 L 58.347656 333.207031 C 58.417969 333.511719 58.515625 333.808594 58.640625 334.097656 C 58.769531 334.386719 58.921875 334.65625 59.105469 334.914062 C 59.285156 335.171875 59.488281 335.410156 59.714844 335.625 C 59.945312 335.84375 60.191406 336.035156 60.457031 336.203125 C 60.722656 336.371094 61 336.511719 61.292969 336.628906 C 61.585938 336.742188 61.886719 336.824219 62.199219 336.878906 C 62.507812 336.933594 62.820312 336.957031 63.132812 336.949219 C 63.449219 336.941406 63.757812 336.902344 64.066406 336.835938 C 64.375 336.765625 64.671875 336.667969 64.957031 336.542969 C 65.246094 336.414062 65.519531 336.261719 65.773438 336.082031 C 66.03125 335.898438 66.269531 335.695312 66.488281 335.46875 C 66.703125 335.242188 66.898438 334.996094 67.066406 334.730469 C 67.234375 334.464844 67.375 334.183594 67.488281 333.890625 C 67.601562 333.597656 67.6875 333.296875 67.738281 332.988281 C 67.792969 332.675781 67.816406 332.367188 67.808594 332.050781 C 67.804688 331.738281 67.765625 331.425781 67.695312 331.121094 L 65.871094 322.945312 L 94.597656 302.492188 L 168.703125 330.921875 C 170.863281 331.746094 173.085938 332.308594 175.378906 332.601562 C 177.671875 332.894531 179.96875 332.914062 182.265625 332.660156 C 184.5625 332.40625 186.796875 331.882812 188.972656 331.09375 C 191.144531 330.304688 193.191406 329.273438 195.117188 327.992188 L 329.128906 238.832031 C 329.828125 238.367188 330.476562 237.839844 331.070312 237.246094 C 331.664062 236.652344 332.195312 236.007812 332.664062 235.3125 C 333.132812 234.613281 333.527344 233.878906 333.847656 233.101562 C 334.171875 232.328125 334.414062 231.527344 334.582031 230.707031 C 334.746094 229.882812 334.828125 229.050781 334.828125 228.210938 C 334.832031 227.371094 334.75 226.539062 334.585938 225.714844 C 334.425781 224.894531 334.183594 224.09375 333.863281 223.316406 C 333.542969 222.542969 333.148438 221.804688 332.683594 221.105469 Z M 267.789062 213.300781 C 268.992188 212.933594 270.222656 212.699219 271.476562 212.597656 C 272.730469 212.496094 273.980469 212.527344 275.230469 212.691406 C 276.476562 212.859375 277.691406 213.15625 278.875 213.582031 C 280.058594 214.011719 281.183594 214.5625 282.25 215.230469 L 285.582031 217.324219 L 197.15625 248.304688 L 181.832031 239.503906 Z M 220.691406 209.441406 C 222.351562 208.933594 224.042969 208.796875 225.765625 209.023438 C 227.484375 209.253906 229.082031 209.832031 230.550781 210.753906 L 234.71875 213.375 L 170.445312 232.964844 L 160.714844 227.378906 Z M 325.191406 228.824219 C 325.019531 229.695312 324.5625 230.375 323.820312 230.863281 L 189.8125 320.023438 C 188.523438 320.878906 187.152344 321.570312 185.699219 322.097656 C 184.242188 322.628906 182.75 322.976562 181.210938 323.148438 C 179.671875 323.316406 178.136719 323.304688 176.601562 323.105469 C 175.070312 322.910156 173.578125 322.535156 172.132812 321.980469 L 95.628906 292.632812 C 94.878906 292.347656 94.105469 292.253906 93.308594 292.355469 C 92.515625 292.457031 91.789062 292.738281 91.132812 293.203125 L 63.605469 312.804688 L 49.902344 251.460938 L 107.683594 222.667969 C 109.789062 221.617188 111.996094 220.835938 114.296875 220.328125 C 116.597656 219.820312 118.925781 219.601562 121.277344 219.671875 C 123.632812 219.742188 125.945312 220.097656 128.210938 220.738281 C 130.480469 221.382812 132.632812 222.289062 134.675781 223.464844 L 194.289062 257.695312 C 194.984375 258.09375 195.636719 258.558594 196.242188 259.082031 C 196.851562 259.609375 197.402344 260.1875 197.898438 260.820312 C 198.390625 261.453125 198.820312 262.125 199.183594 262.84375 C 199.550781 263.558594 199.839844 264.300781 200.058594 265.074219 C 200.28125 265.847656 200.421875 266.632812 200.488281 267.433594 C 200.554688 268.234375 200.546875 269.03125 200.457031 269.828125 C 200.367188 270.628906 200.203125 271.410156 199.964844 272.175781 C 199.722656 272.941406 199.414062 273.679688 199.03125 274.382812 L 198.832031 274.75 C 198.484375 275.414062 198.078125 276.035156 197.613281 276.621094 C 197.144531 277.207031 196.628906 277.742188 196.0625 278.234375 C 195.496094 278.722656 194.890625 279.152344 194.242188 279.53125 C 193.597656 279.90625 192.917969 280.21875 192.214844 280.464844 C 191.507812 280.714844 190.785156 280.898438 190.046875 281.011719 C 189.304688 281.125 188.5625 281.167969 187.816406 281.144531 C 187.066406 281.117188 186.328125 281.023438 185.597656 280.863281 C 184.867188 280.699219 184.160156 280.46875 183.472656 280.171875 L 137.839844 260.78125 C 137.550781 260.660156 137.253906 260.566406 136.945312 260.5 C 136.636719 260.433594 136.324219 260.402344 136.007812 260.398438 C 135.695312 260.394531 135.382812 260.421875 135.074219 260.480469 C 134.765625 260.539062 134.460938 260.625 134.171875 260.742188 C 133.878906 260.859375 133.601562 261.003906 133.335938 261.175781 C 133.074219 261.347656 132.828125 261.546875 132.605469 261.765625 C 132.378906 261.988281 132.179688 262.226562 132 262.488281 C 131.824219 262.746094 131.671875 263.019531 131.550781 263.3125 C 131.425781 263.601562 131.332031 263.898438 131.269531 264.207031 C 131.203125 264.515625 131.171875 264.828125 131.167969 265.140625 C 131.164062 265.457031 131.195312 265.769531 131.253906 266.078125 C 131.3125 266.386719 131.398438 266.6875 131.519531 266.980469 C 131.636719 267.269531 131.78125 267.546875 131.953125 267.8125 C 132.128906 268.074219 132.324219 268.320312 132.546875 268.542969 C 132.765625 268.765625 133.007812 268.96875 133.265625 269.144531 C 133.527344 269.320312 133.804688 269.46875 134.09375 269.59375 L 179.722656 288.984375 C 180.339844 289.246094 180.964844 289.484375 181.601562 289.691406 C 182.238281 289.898438 182.882812 290.074219 183.539062 290.21875 C 184.191406 290.367188 184.851562 290.480469 185.515625 290.566406 C 186.179688 290.652344 186.847656 290.707031 187.515625 290.726562 C 188.183594 290.75 188.855469 290.742188 189.523438 290.703125 C 190.191406 290.664062 190.855469 290.59375 191.519531 290.488281 C 192.179688 290.386719 192.835938 290.253906 193.484375 290.09375 C 194.136719 289.929688 194.777344 289.738281 195.40625 289.515625 C 196.039062 289.289062 196.660156 289.039062 197.265625 288.757812 C 197.875 288.476562 198.46875 288.167969 199.046875 287.832031 C 199.628906 287.496094 200.1875 287.136719 200.734375 286.746094 C 201.28125 286.359375 201.804688 285.945312 202.3125 285.507812 C 202.820312 285.070312 203.304688 284.609375 203.769531 284.125 C 204.234375 283.644531 204.671875 283.140625 205.089844 282.617188 C 205.507812 282.089844 205.898438 281.550781 206.265625 280.988281 C 206.628906 280.429688 206.96875 279.851562 207.28125 279.257812 L 207.476562 278.894531 C 207.972656 277.980469 208.398438 277.039062 208.757812 276.066406 C 209.117188 275.09375 209.40625 274.101562 209.621094 273.085938 C 209.839844 272.074219 209.988281 271.050781 210.0625 270.015625 C 210.136719 268.980469 210.136719 267.945312 210.0625 266.914062 C 209.988281 265.878906 209.84375 264.855469 209.628906 263.839844 C 209.410156 262.828125 209.121094 261.832031 208.761719 260.859375 C 208.40625 259.886719 207.980469 258.945312 207.488281 258.03125 C 206.996094 257.121094 206.441406 256.246094 205.828125 255.410156 L 306.230469 220.234375 C 307.054688 219.945312 307.902344 219.722656 308.765625 219.574219 C 309.628906 219.425781 310.496094 219.34375 311.375 219.339844 C 312.25 219.332031 313.121094 219.398438 313.984375 219.535156 C 314.851562 219.671875 315.699219 219.882812 316.53125 220.160156 C 317.363281 220.4375 318.164062 220.78125 318.9375 221.191406 C 319.710938 221.601562 320.449219 222.074219 321.144531 222.605469 C 321.839844 223.136719 322.488281 223.722656 323.085938 224.363281 C 323.683594 225.003906 324.226562 225.6875 324.714844 226.414062 C 325.207031 227.152344 325.367188 227.953125 325.191406 228.824219 Z M 325.191406 228.824219 "/></g><path style=" stroke:none;fill-rule:nonzero;fill:#000000;fill-opacity:1;" d="M 101.289062 105.675781 L 103.851562 114.675781 C 103.882812 114.78125 103.914062 114.886719 103.953125 114.988281 C 113.582031 141.671875 138.996094 166.351562 183.929688 192.664062 C 184.675781 193.097656 185.480469 193.316406 186.347656 193.320312 C 187.210938 193.320312 188.015625 193.105469 188.761719 192.667969 C 212.148438 179.054688 230.011719 165.964844 243.363281 152.648438 C 258.867188 137.183594 268.070312 121.710938 271.496094 105.34375 C 271.511719 105.273438 271.523438 105.203125 271.535156 105.132812 C 272.195312 101.144531 272.5 97.128906 272.457031 93.085938 C 272.453125 92.992188 272.449219 92.902344 272.445312 92.808594 C 271.523438 79.808594 269.0625 70.476562 264.917969 64.289062 C 256.808594 49.933594 242.914062 40.519531 227.71875 39.097656 C 212.953125 37.714844 198.429688 43.777344 186.351562 56.25 C 178.601562 48.257812 169.75 42.8125 160.5 40.386719 C 158.042969 39.730469 155.546875 39.292969 153.011719 39.066406 C 150.476562 38.84375 147.941406 38.84375 145.40625 39.058594 C 142.871094 39.273438 140.375 39.707031 137.914062 40.355469 C 135.453125 41.003906 133.066406 41.859375 130.753906 42.921875 C 120.539062 47.570312 111.953125 56.035156 106.578125 66.761719 C 100.867188 78.160156 98.996094 91.421875 101.164062 105.113281 C 101.195312 105.300781 101.234375 105.488281 101.289062 105.675781 Z M 115.140625 71.050781 C 119.539062 62.273438 126.492188 55.378906 134.722656 51.636719 C 150.832031 44.308594 168.761719 49.855469 182.679688 66.476562 C 182.90625 66.742188 183.15625 66.984375 183.433594 67.199219 C 183.710938 67.410156 184.007812 67.589844 184.324219 67.738281 C 184.644531 67.886719 184.972656 68 185.3125 68.074219 C 185.65625 68.152344 186.003906 68.1875 186.351562 68.1875 C 186.703125 68.1875 187.046875 68.152344 187.390625 68.074219 C 187.730469 68 188.0625 67.886719 188.378906 67.738281 C 188.695312 67.589844 188.992188 67.410156 189.269531 67.199219 C 189.546875 66.984375 189.800781 66.742188 190.023438 66.476562 C 200.6875 53.742188 213.753906 47.410156 226.828125 48.628906 C 238.949219 49.765625 250.101562 57.433594 256.660156 69.144531 C 256.726562 69.265625 256.800781 69.386719 256.882812 69.5 C 260.105469 74.230469 262.066406 82.027344 262.878906 93.34375 C 262.910156 96.746094 262.648438 100.128906 262.101562 103.488281 C 259.050781 117.933594 250.707031 131.796875 236.597656 145.871094 C 224.292969 158.144531 207.839844 170.296875 186.359375 182.980469 C 145.609375 158.769531 121.605469 135.5 113.015625 111.894531 L 110.582031 103.335938 C 108.792969 91.730469 110.371094 80.574219 115.140625 71.050781 Z M 115.140625 71.050781 "/></g></svg>